<svg id="coupon" xmlns="http://www.w3.org/2000/svg" width="745.03" height="455.59" viewBox="0 0 745.03 455.59">
  <defs>
    <style>
      .cls-1 {
        fill: #3f3c3f;
      }

      .cls-2, .cls-3 {
        fill: #fff;
      }

      .cls-3 {
        font-size: 218px;
        font-family: MyriadPro-Bold, Myriad Pro;
        font-weight: 700;
      }

      .cls-4, .cls-5 {
        fill: none;
        stroke: #fff;
        stroke-miterlimit: 10;
        stroke-width: 9px;
      }

      .cls-5 {
        stroke-dasharray: 55.16 55.16;
      }
    </style>
  </defs>
  <g id="coupoShadow">
    <path id="couponBaseMain" class="cls-1" d="M983.12,592.86c-57,56.85-114.21,113.54-170.9,170.73-9.13,9.2-18.32,13.49-31.56,13.46q-257.38-.62-514.77-.31c-20.08,0-22.72-2.6-22.73-22.73q-.06-166.11,0-332.22c0-20.19,2.52-22.71,22.74-22.72,172.68,0,345.37-.2,518.06.5,9,0,20,5.54,26.62,12,58,56.68,115.14,114.16,172.54,171.4Zm-92.06-4.69c0-20.6-17.07-37.75-37.37-37.49-19.66.26-35.94,17-36,37-.06,20.77,16.92,37.9,37.15,37.48C874.54,624.73,891,607.9,891.06,588.17Z" transform="translate(-243.13 -321.46)"/>
    <path id="couponWhiteCircle" class="cls-1" d="M891.06,588.17c0,19.73-16.52,36.56-36.21,37-20.23.42-37.21-16.71-37.15-37.48,0-20,16.33-36.71,36-37C874,550.42,891.09,567.57,891.06,588.17Z" transform="translate(-243.13 -321.46)"/>
  </g>
  <g id="couponBase">
    <path id="couponBaseMain-2" data-name="couponBaseMain" d="M988.16,515.29C931.14,572.15,874,628.84,817.26,686c-9.13,9.21-18.32,13.5-31.56,13.46q-257.38-.62-514.77-.31c-20.08,0-22.72-2.6-22.73-22.72q-.06-166.11,0-332.22c0-20.2,2.52-22.72,22.74-22.72,172.68,0,345.37-.21,518.06.5,9,0,20,5.53,26.62,12,58,56.68,115.14,114.16,172.54,171.4ZM896.1,510.6c0-20.6-17.07-37.75-37.37-37.48-19.66.25-35.94,17-36,37-.06,20.77,16.92,37.89,37.15,37.48C879.58,547.17,896.07,530.33,896.1,510.6Z" transform="translate(-243.13 -321.46)"/>
    <path id="couponWhiteCircle-2" data-name="couponWhiteCircle" class="cls-2" d="M896.1,510.6c0,19.73-16.52,36.57-36.21,37-20.23.41-37.21-16.71-37.15-37.48,0-20,16.33-36.72,36-37C879,472.85,896.13,490,896.1,510.6Z" transform="translate(-243.13 -321.46)"/>
  </g>
  <text class="cls-3" transform="translate(255.51 261.76)">%</text>
  <g id="couponDash">
    <g>
      <line class="cls-4" x1="100" y1="32.96" x2="100" y2="57.96"/>
      <line class="cls-5" x1="100" y1="113.13" x2="100" y2="306.2"/>
      <line class="cls-4" x1="100" y1="333.79" x2="100" y2="358.79"/>
    </g>
  </g>
</svg>
