<svg id="musicIcon" xmlns="http://www.w3.org/2000/svg" width="396.39" height="303.12" viewBox="0 0 396.39 303.12">
  <defs>
    <style>
      .cls-1 {
        fill: none;
        stroke: #000;
        stroke-miterlimit: 10;
        stroke-width: 7px;
      }
    </style>
  </defs>
  <polyline id="soundWave" class="cls-1" points="126.57 241.32 166.8 241.32 183.19 282.82 205.54 206.83 226.4 256 275.58 256"/>
  <g id="headset">
    <path id="topheadset" d="M499.55,417.64V406a247.12,247.12,0,0,1,11.66-23.31c8.05-14.18,17.45-30.74,35-46.63a139.14,139.14,0,0,1,35-23.32,142.11,142.11,0,0,1,46.63-11.66c37.37-2.62,83.88,10.85,116.59,46.63,23.76,26,35,70,35,70h23.32c0-58.3-23.32-93.27-23.32-93.27-35-70-128.24-81.61-128.24-81.61-81.61,0-128.24,46.63-128.24,46.63-46.64,35-46.64,128.25-46.64,128.25Z" transform="translate(-441.26 -242.76)"/>
    <path id="leftEar2" d="M464.57,429.3V545.88c-23.31,0-23.31-23.32-23.31-23.32V452.61h0V441C441.26,429.3,464.57,429.3,464.57,429.3Z" transform="translate(-441.26 -242.76)"/>
    <path id="rightEar2" d="M814.33,429.3V545.88c23.32,0,23.32-23.32,23.32-23.32V452.61h0V441C837.65,429.3,814.33,429.3,814.33,429.3Z" transform="translate(-441.26 -242.76)"/>
    <path id="leftEar1" d="M476.23,545.88V429.3h35c11.66,0,23.31,23.31,23.31,23.31v81.61c-11.65,11.66-23.31,11.66-23.31,11.66Z" transform="translate(-441.26 -242.76)"/>
    <path id="rightEar1" d="M802.67,545.88V429.3h-35c-11.66,0-23.32,23.31-23.32,23.31v81.61c11.66,11.66,23.32,11.66,23.32,11.66Z" transform="translate(-441.26 -242.76)"/>
  </g>
</svg>
