<svg xmlns="http://www.w3.org/2000/svg" width="326.61" height="393.32" viewBox="0 0 326.61 393.32">
  <defs>
    <style>
      .cls-1 {
        fill: #fff;
      }
    </style>
  </defs>
  <g id="lightBling">
    <rect id="lightBling1" x="562.52" y="645.55" width="49.37" height="8.41" rx="3.6" transform="translate(-804.54 237.66) rotate(-45)"/>
    <rect id="lightBling2" x="517.08" y="553.34" width="49.37" height="8.41" rx="3.6" transform="translate(566.45 747.22) rotate(180)"/>
    <rect id="lightBling3" x="530.73" y="444.23" width="49.37" height="8.41" rx="3.6" transform="translate(295.13 746.62) rotate(-150)"/>
    <rect id="lightBling4" x="655.84" y="388.35" width="49.37" height="8.41" rx="3.6" transform="translate(-229.11 705.21) rotate(-90)"/>
    <rect id="lightBling5" x="776.89" y="441.23" width="49.37" height="8.41" rx="3.6" transform="translate(1187.43 -82.64) rotate(140.88)"/>
    <rect id="lightBling6" x="794.32" y="553.23" width="49.37" height="8.41" rx="3.6" transform="translate(1120.93 746.99) rotate(180)"/>
    <rect id="lightBling7" x="747.77" y="645.55" width="49.37" height="8.41" rx="3.6" transform="translate(342.14 1287.55) rotate(-135)"/>
  </g>
  <g id="lightBottom">
    <path id="lightBottom1" d="M708.38,706.84H653.51a7.67,7.67,0,0,1-7.64-7.64h0a7.66,7.66,0,0,1,7.64-7.63h54.87A7.66,7.66,0,0,1,716,699.2h0A7.67,7.67,0,0,1,708.38,706.84Z" transform="translate(-517.08 -367.87)"/>
    <path id="lightBottom2" d="M708.38,729.1H653.51a7.66,7.66,0,0,1-7.64-7.63h0a7.67,7.67,0,0,1,7.64-7.64h54.87a7.67,7.67,0,0,1,7.64,7.64h0A7.66,7.66,0,0,1,708.38,729.1Z" transform="translate(-517.08 -367.87)"/>
    <path id="lightBottom3" d="M681.68,761.19c-10.79-1-19.16-5.22-23.72-15.24-2.78-6.1-1.19-10.1,6.06-10.2,11.29-.16,22.6-.19,33.89,0,7.28.12,8.69,4.2,6,10.28C699.52,755.68,691.42,759.79,681.68,761.19Z" transform="translate(-517.08 -367.87)"/>
  </g>
  <g id="LightBulb">
    <path d="M651.92,434.73a98.3,98.3,0,0,0-37.07,20.19c-32.84,28.16-36.06,69.7-36.52,79.19-.54,11-1.33,27.35,7.18,44.44,1.44,2.91,3,5.6,25,33.18,17.62,22.13,18.9,23.29,21.23,28.59,0,0,2.48,5.64,9.14,35.88h0s4,5.54,8.53,7.94c3.54,1.88,6.92,1.58,10.47,1.36,0,0,12.19-.74,28.2,0,7.75.33,13.77,1.23,20.36-.48a25.46,25.46,0,0,0,8.36-4.09c3.08-2.27,3.84-4,4-4.44.86-2.05.41-3.44.46-6.05.05-2.95.68-4.61,1.81-8.5,3.38-11.67,2.63-13.92,5.11-20.12,2.25-5.64,4.95-9,10.27-15.58,5.75-7.12,7.88-7.9,17.81-19.05a120.24,120.24,0,0,0,7.76-9.23A105.38,105.38,0,0,0,774,580.83c8.23-18.22,8.92-38.21,9-40.88.23-8.63.54-30.44-12.1-54.09A106.84,106.84,0,0,0,743.11,453c-5.83-4.61-19.79-15.4-40.75-19.94a101,101,0,0,0-26-2A107,107,0,0,0,651.92,434.73Z" transform="translate(-517.08 -367.87)"/>
  </g>
  <g id="skillWheelBig">
    <circle id="skillWheelOutter" class="cls-1" cx="128.76" cy="145.58" r="35.19"/>
    <circle id="skillWheelInner" cx="128.76" cy="145.58" r="15.16"/>
    <path id="skillWheel8" class="cls-1" d="M638.75,479l-3-6.89a5,5,0,0,0-6.52-2.62l-2.58,1.11a5,5,0,0,0-2.61,6.52l2.95,6.89Z" transform="translate(-517.08 -367.87)"/>
    <path id="skillWheel2" class="cls-1" d="M679.44,504.19l6.73-3.29a5,5,0,0,0,2.28-6.64l-1.23-2.52a5,5,0,0,0-6.65-2.28l-6.73,3.29Z" transform="translate(-517.08 -367.87)"/>
    <path id="skillWheel3" class="cls-1" d="M678.35,527.24l7.34,1.55a5,5,0,0,0,5.89-3.83l.58-2.74a5,5,0,0,0-3.84-5.89L681,514.78Z" transform="translate(-517.08 -367.87)"/>
    <path id="skillWheel4" class="cls-1" d="M659,546.17l4,6.36a5,5,0,0,0,6.85,1.58l2.37-1.48a5,5,0,0,0,1.58-6.85l-4-6.36Z" transform="translate(-517.08 -367.87)"/>
    <path id="skillWheel5" class="cls-1" d="M622.53,538.63l-4.31,6.13a5,5,0,0,0,1.2,6.93l2.29,1.61a5,5,0,0,0,6.93-1.2L633,546Z" transform="translate(-517.08 -367.87)"/>
    <path id="skillWheel6" class="cls-1" d="M610.76,515.06l-7.34,1.54a5,5,0,0,0-3.84,5.88l.58,2.75a5,5,0,0,0,5.89,3.83l7.33-1.54Z" transform="translate(-517.08 -367.87)"/>
    <path id="skillWheel7" class="cls-1" d="M618.06,491.79l-6.87-3a5,5,0,0,0-6.54,2.55l-1.13,2.57a5,5,0,0,0,2.56,6.54l6.86,3Z" transform="translate(-517.08 -367.87)"/>
    <path id="skillWheel1" class="cls-1" d="M665.56,485.39l3.6-6.58a5,5,0,0,0-2-6.74l-2.46-1.35a5,5,0,0,0-6.75,2l-3.6,6.57Z" transform="translate(-517.08 -367.87)"/>
  </g>
  <g id="skillWheelSmall">
    <circle id="skillWheelOutter-2" data-name="skillWheelOutter" class="cls-1" cx="721.24" cy="499.28" r="23.92" transform="translate(-658.88 288.36) rotate(-45)"/>
    <circle id="skillWheelInner-2" data-name="skillWheelInner" cx="204.16" cy="131.41" r="10.31"/>
    <path id="skillWheel8-2" data-name="skillWheel8" class="cls-1" d="M716.42,475.88l-2-4.68a3.37,3.37,0,0,0-4.43-1.78l-1.75.75a3.39,3.39,0,0,0-1.78,4.44l2,4.68Z" transform="translate(-517.08 -367.87)"/>
    <path id="skillWheel2-2" data-name="skillWheel2" class="cls-1" d="M744.08,493l4.58-2.24a3.37,3.37,0,0,0,1.55-4.52l-.83-1.71a3.38,3.38,0,0,0-4.52-1.55l-4.58,2.24Z" transform="translate(-517.08 -367.87)"/>
    <path id="skillWheel3-2" data-name="skillWheel3" class="cls-1" d="M743.35,508.66l5,1a3.38,3.38,0,0,0,4-2.61l.39-1.86a3.37,3.37,0,0,0-2.6-4l-5-1.06Z" transform="translate(-517.08 -367.87)"/>
    <path id="skillWheel4-2" data-name="skillWheel4" class="cls-1" d="M730.19,521.53l2.7,4.32a3.39,3.39,0,0,0,4.66,1.08l1.61-1a3.38,3.38,0,0,0,1.08-4.66l-2.7-4.32Z" transform="translate(-517.08 -367.87)"/>
    <path id="skillWheel5-2" data-name="skillWheel5" class="cls-1" d="M705.39,516.4l-2.93,4.17a3.38,3.38,0,0,0,.82,4.71l1.55,1.1a3.39,3.39,0,0,0,4.71-.82l2.94-4.17Z" transform="translate(-517.08 -367.87)"/>
    <path id="skillWheel6-2" data-name="skillWheel6" class="cls-1" d="M697.39,500.37l-5,1.05a3.38,3.38,0,0,0-2.61,4l.39,1.87a3.39,3.39,0,0,0,4,2.61l5-1Z" transform="translate(-517.08 -367.87)"/>
    <path id="skillWheel7-2" data-name="skillWheel7" class="cls-1" d="M702.35,484.55l-4.67-2.05a3.38,3.38,0,0,0-4.45,1.74l-.76,1.75a3.38,3.38,0,0,0,1.73,4.45l4.67,2Z" transform="translate(-517.08 -367.87)"/>
    <path id="skillWheel1-2" data-name="skillWheel1" class="cls-1" d="M734.65,480.2l2.45-4.47a3.39,3.39,0,0,0-1.34-4.59l-1.67-.91a3.38,3.38,0,0,0-4.59,1.33L727.05,476Z" transform="translate(-517.08 -367.87)"/>
  </g>
  <g id="skillWheelMid">
    <circle id="skillWheelOutter-3" data-name="skillWheelOutter" class="cls-1" cx="698.57" cy="584.56" r="28.52" transform="translate(-507.42 812.6) rotate(-80.78)"/>
    <circle id="skillWheelInner-3" data-name="skillWheelInner" cx="181.49" cy="216.69" r="12.29"/>
    <path id="skillWheel8-3" data-name="skillWheel8" class="cls-1" d="M692.83,556.67l-2.4-5.59a4,4,0,0,0-5.28-2.11l-2.09.89a4,4,0,0,0-2.12,5.29l2.4,5.58Z" transform="translate(-517.08 -367.87)"/>
    <path id="skillWheel2-3" data-name="skillWheel2" class="cls-1" d="M725.8,577.06l5.45-2.67A4,4,0,0,0,733.1,569l-1-2a4,4,0,0,0-5.39-1.85l-5.46,2.67Z" transform="translate(-517.08 -367.87)"/>
    <path id="skillWheel3-3" data-name="skillWheel3" class="cls-1" d="M724.92,595.73l5.94,1.26a4,4,0,0,0,4.78-3.11l.47-2.22a4,4,0,0,0-3.11-4.77l-5.94-1.26Z" transform="translate(-517.08 -367.87)"/>
    <path id="skillWheel4-3" data-name="skillWheel4" class="cls-1" d="M709.24,611.08l3.22,5.15a4,4,0,0,0,5.55,1.28l1.92-1.2a4,4,0,0,0,1.29-5.55L718,605.61Z" transform="translate(-517.08 -367.87)"/>
    <path id="skillWheel5-3" data-name="skillWheel5" class="cls-1" d="M679.68,605l-3.5,5a4,4,0,0,0,1,5.61l1.86,1.3a4,4,0,0,0,5.61-1l3.49-5Z" transform="translate(-517.08 -367.87)"/>
    <path id="skillWheel6-3" data-name="skillWheel6" class="cls-1" d="M670.14,585.86l-5.94,1.25a4,4,0,0,0-3.12,4.77l.47,2.22a4,4,0,0,0,4.77,3.11l5.95-1.25Z" transform="translate(-517.08 -367.87)"/>
    <path id="skillWheel7-3" data-name="skillWheel7" class="cls-1" d="M676.05,567l-5.56-2.44a4,4,0,0,0-5.3,2.07l-.92,2.08a4,4,0,0,0,2.08,5.31l5.56,2.44Z" transform="translate(-517.08 -367.87)"/>
    <path id="skillWheel1-3" data-name="skillWheel1" class="cls-1" d="M714.55,561.81l2.92-5.32a4,4,0,0,0-1.59-5.47l-2-1.09a4,4,0,0,0-5.47,1.59l-2.92,5.33Z" transform="translate(-517.08 -367.87)"/>
  </g>
</svg>
