<svg id="toy" xmlns="http://www.w3.org/2000/svg" width="403.09" height="490.58" viewBox="0 0 403.09 490.58">
  <defs>
    <style>
      .cls-1, .cls-2, .cls-3, .cls-5, .cls-6 {
        fill: none;
      }

      .cls-1, .cls-2, .cls-3, .cls-4, .cls-5, .cls-6 {
        stroke: #000;
      }

      .cls-1, .cls-6 {
        stroke-linecap: round;
        stroke-linejoin: round;
      }

      .cls-1, .cls-3 {
        stroke-width: 13px;
      }

      .cls-2, .cls-3, .cls-4, .cls-5 {
        stroke-miterlimit: 10;
      }

      .cls-2, .cls-6 {
        stroke-width: 7px;
      }

      .cls-5 {
        stroke-width: 10px;
      }
    </style>
  </defs>
  <g id="body">
    <path id="mainBody" class="cls-1" d="M601.66,471.28c3.4,34.66,0,61.14-3.38,77.77-.46,2.3-.92,4.34-1,4.55-1.53,6.25-4.91,20.08-15.09,31-4.24,4.53-12.5,13.36-25.36,14.37-15.09,1.18-26-9.22-27.89-11-14.64-13.92-14.16-35.42-13.53-52.41.55-14.85,2.54-68.87,46.49-109.9a147.2,147.2,0,0,1,49.88-30.43h12.68l24.08,11.23c42.7,34.42,147.52-9.95,147.52-9.95a50.19,50.19,0,0,1,11.7-1.28c52,.54,84.82,84.67,86.36,88.76,6,16,19.25,52.57,4.23,87.07-3.25,7.45-9.35,20.94-22,24.51-15.35,4.35-31.76-8.38-39.73-17.75-11.42-13.41-13.12-29.69-16.06-61.71a413.82,413.82,0,0,1-1.7-44.8l1.31,84.91c-4.09-2.67-19.75-12.15-40.18-8.83-21.59,3.51-33.5,18.88-37.21,23.67-9.62,12.42-12,24.92-13.52,33A98.7,98.7,0,0,0,731,645.42a100.57,100.57,0,0,0,5.92,16.91H681.13c2.72-4.9,22-40.91,5.57-76.93-2.75-6-16.39-35.93-45.31-39.73-14.46-1.9-26.41,3.51-32.12,6.76-8.19,4.67-10.24,8.48-10.24,8.48,8.78-26,4.68-79.91,4.68-79.91Z" transform="translate(-508.7 -206.8)"/>
    <ellipse id="leftLeg" class="cls-1" cx="127.99" cy="412.31" rx="56.06" ry="71.77"/>
    <ellipse id="leftShoe" cx="127.57" cy="415.3" rx="37.25" ry="47.69"/>
    <ellipse id="rightShoe" cx="276.82" cy="415.3" rx="37.25" ry="47.69"/>
    <ellipse id="rightLeg" class="cls-1" cx="276.82" cy="412.31" rx="56.06" ry="71.77"/>
  </g>
  <g id="bowTie">
    <ellipse id="centerTie" class="cls-2" cx="197.5" cy="241.8" rx="11.03" ry="19.77"/>
    <path id="leftTie" class="cls-2" d="M695.18,437l-27.71-8.21C649.14,433.31,655.86,455,655.86,455l6.72,20.89c33.57-1.49,36.27-12.5,36.27-12.5C691.68,455,695.18,437,695.18,437Z" transform="translate(-508.7 -206.8)"/>
    <path id="rightTie" class="cls-2" d="M717.58,437l27.71-8.21C763.62,433.31,756.9,455,756.9,455l-6.71,20.89c-33.58-1.49-36.28-12.5-36.28-12.5C721.08,455,717.58,437,717.58,437Z" transform="translate(-508.7 -206.8)"/>
  </g>
  <g id="head">
    <path id="mainHead" class="cls-3" d="M667.63,229.22c-26,11.06-41,30.62-45.92,37.27-6.79,9.11-21.32,29.2-22.63,58.57-.4,9-1.1,32.09,14,53.9,10.16,14.7,22.71,21.91,30,26,31.1,17.4,62.6,13.56,81.2,11.31,24.42-2.94,51.14-6.16,71.21-28,14.05-15.25,18.1-32.27,20-40.6,6.34-28.19,1.68-65.57-23.27-93.55C758.44,216.35,703.93,213.8,667.63,229.22Z" transform="translate(-508.7 -206.8)"/>
    <path id="rightEar" class="cls-3" d="M594.42,307.75c-17.68-9.13-29-26.52-29.28-45.25-.28-19.46,11.34-43.45,33.94-47.92,16.62-3.29,34.58,4.9,45.25,20.63l-1.05,8.65C621.08,254.24,594.42,307.75,594.42,307.75Z" transform="translate(-508.7 -206.8)"/>
    <path id="leftEar" class="cls-3" d="M822.15,308c18.34-7.71,31-24.15,32.76-42.8,1.81-19.38-7.88-44.21-30.06-50.45-16.31-4.59-34.86,2.16-46.74,17l.37,8.71C799.79,252.53,822.15,308,822.15,308Z" transform="translate(-508.7 -206.8)"/>
    <g id="headFace">
      <circle id="leftEye" cx="135.63" cy="100.95" r="14.67"/>
      <circle id="rightEye" class="cls-4" cx="258.55" cy="100.95" r="14.67"/>
      <ellipse id="mouth" class="cls-5" cx="197.5" cy="155.4" rx="61.23" ry="50.58"/>
      <circle id="nose" class="cls-4" cx="706.2" cy="338.07" r="13.58" transform="translate(-294.62 740.23) rotate(-76.64)"/>
      <path id="smile" class="cls-6" d="M667.47,368.75c1.66,2.89,13,21.93,35.64,25.63,3.36.55,22.93,3.76,36.89-9.38a37.2,37.2,0,0,0,9.38-14.38" transform="translate(-508.7 -206.8)"/>
    </g>
  </g>
</svg>
