<svg id="game" xmlns="http://www.w3.org/2000/svg" width="473.86" height="266.34" viewBox="0 0 473.86 266.34">
  <defs>
    <style>
      .cls-1, .cls-2 {
        fill: #fff;
        stroke-miterlimit: 10;
      }

      .cls-1 {
        stroke: #020202;
      }

      .cls-2 {
        stroke: #000;
      }
    </style>
  </defs>
  <g id="baseController">
    <path id="base" d="M544.65,572.94C515,596.39,498.21,601,484,601c-6,0-20-.26-32.49-9.6-2.4-1.79-12.73-9.9-19.5-32.5-6.06-20.23-5.31-38.86-2.17-59.58,4.41-29.07,9.64-63.57,33.58-101.82C476.65,376.32,492.48,351,523,340.05a85.89,85.89,0,0,1,31.41-5.42c22.86.48,43,10.6,56.33,17.33,1.45.73,5.17,2.64,10.83,5.42,10.15,5,18.83,9,20.59,9.75,18,7.88,46.63-.76,58.49-4.33,25.74-7.77,26.71-13.76,50.91-20.58,12.4-3.5,28.72-8.1,43.33-6.5,49.07,5.35,77.52,80.39,91,115.9,19.84,52.32,15.39,82.3,14.08,89.91-3.16,18.46-4.3,36.86-18.41,48.74-25.44,21.42-68.29,4.39-73.66,2.17a69.56,69.56,0,0,1-19.45-11.57C764.78,560.36,753.22,544.37,744,534c-30.78-34.68-107.37-38.16-149.49-9.75C575.54,537,578.94,545.85,544.65,572.94Z" transform="translate(-427.45 -334.62)"/>
  </g>
  <g id="moveButtons">
    <path id="moveLeft" class="cls-1" d="M483.45,437.54h0a10.29,10.29,0,0,1,10.29-10.29H523a10.29,10.29,0,0,1,10.29,10.29h0A10.29,10.29,0,0,1,523,447.83H493.74A10.29,10.29,0,0,1,483.45,437.54Z" transform="translate(-427.45 -334.62)"/>
    <path id="moveRight" class="cls-2" d="M605.86,437.54h0a10.29,10.29,0,0,0-10.29-10.29H566.32A10.29,10.29,0,0,0,556,437.54h0a10.29,10.29,0,0,0,10.29,10.29h29.25A10.29,10.29,0,0,0,605.86,437.54Z" transform="translate(-427.45 -334.62)"/>
    <rect id="moveDown" class="cls-2" x="108.54" y="112.67" width="20.58" height="49.83" rx="10.29"/>
    <rect id="moveUp" class="cls-2" x="108.54" y="43.35" width="20.58" height="49.83" rx="10.29"/>
  </g>
  <g id="sideButtons">
    <circle id="sideLeft" class="cls-2" cx="302.44" cy="102.92" r="22.75"/>
    <circle id="sideDown" class="cls-2" cx="349.38" cy="144.58" r="22.75"/>
    <circle id="sideRight" class="cls-2" cx="393.43" cy="102.92" r="22.75"/>
    <circle id="sideUp" class="cls-2" cx="775.38" cy="392.04" r="22.75" transform="translate(-477.56 328.49) rotate(-45)"/>
  </g>
</svg>
