<svg id="voiceIcon" xmlns="http://www.w3.org/2000/svg" width="45.89" height="35.72" viewBox="0 0 45.89 35.72">
  <defs>
    <style>
      .cls-1 {
        fill: #e82125;
      }
    </style>
  </defs>
  <g id="person">
    <path class="cls-1" d="M70.34,40.11c1.31-.49,2-1.15,1.88-2.49,0-.26.32-.67.59-.84,1.4-.88,1.66-1.63,1-3.14a3.92,3.92,0,0,0-.43-.81,9.13,9.13,0,0,1-1.79-6.15c.17-3.74-1.76-6.76-4.58-9.13-4.9-4.11-13.88-4-18.38.09A15.58,15.58,0,0,0,46,36.57c.21.37.92.92,1.26.69.54-.25.11-1-.06-1.32a15.11,15.11,0,0,1-1.89-7.89c.26-4.81,3.39-10.65,9.15-11.81,6-1.2,13,.76,15.3,7.66A22.55,22.55,0,0,1,70.19,28a18.28,18.28,0,0,0,.67,3.37,9.86,9.86,0,0,0,1.34,2.23c.62.93.81,1.65-.51,2.21a1.8,1.8,0,0,0-.89,1.44c.08.93-.25,1.26-1,1.6-1.25.54-1.35,1.36-.39,2.31.24.24.51.47.61.56-.15,1.07-.31,2-.39,2.9s-.46,1.59-1.48,1.65c-1.21.07-2.42.11-3.64.18a3,3,0,0,0-3.18,3c0,.37-.08.69.68.81a.58.58,0,0,0,.71-.57c.09-1.54,1.12-1.82,2.33-1.88,1-.05,1.92,0,2.87,0a2.86,2.86,0,0,0,3.06-3.14c0-.43-.06-1,.17-1.26C72.15,42.05,71.63,41.1,70.34,40.11Z" transform="translate(-43.89 -14.5)"/>
  </g>
  <g id="note">
    <path id="beamNote" class="cls-1" d="M78.6,37.49c0-.16.06-.32.11-.47a2.26,2.26,0,0,1,1.86-1.55,3.39,3.39,0,0,1,1.64.2l.4.14V27.26c0-.08,0-.11.1-.14l3.94-1.29,3-1,.07,0V35c0,.22,0,.43,0,.64a1,1,0,0,1-.08.42,3,3,0,0,1-.91,1.22,2.54,2.54,0,0,1-1.21.5,2.69,2.69,0,0,1-1.29-.09,2.07,2.07,0,0,1-1.5-1.81,1.56,1.56,0,0,1,.69-1.53,2.8,2.8,0,0,1,1.21-.46,7.3,7.3,0,0,1,2,0h.06l.07-6.24-.21.05L85.1,28.76l-1.46.44a.09.09,0,0,0-.08.11l0,4.08c0,1,0,2,0,2.94q0,.3,0,.6a1.83,1.83,0,0,1-.31,1.18,3.18,3.18,0,0,1-1.38,1.29,2.55,2.55,0,0,1-.89.23h-.52l-.33-.06a1.86,1.86,0,0,1-1.25-1,2.52,2.52,0,0,1-.26-.71Z" transform="translate(-43.89 -14.5)"/>
  </g>
</svg>
